<?xml version="1.0" encoding="utf-8"?>
<!-- Generator: Adobe Illustrator 27.6.0, SVG Export Plug-In . SVG Version: 6.00 Build 0)  -->
<svg version="1.1" id="Layer_1" xmlns="http://www.w3.org/2000/svg" xmlns:xlink="http://www.w3.org/1999/xlink" x="0px" y="0px"
	 viewBox="0 0 612 792" style="enable-background:new 0 0 612 792;" xml:space="preserve">
<style type="text/css">
	.st0{fill:#FFFFFF;}
	.st1{fill:url(#SVGID_1_);}
	.st2{fill:url(#SVGID_00000131359051934398869180000018099240463683883431_);}
	.st3{fill:url(#SVGID_00000078733135513147589780000005200758668342099893_);}
	.st4{fill:url(#SVGID_00000034796957724557010470000010979233532036925062_);}
	.st5{fill:url(#SVGID_00000162336082828233245390000017503724711382855586_);}
</style>
<path class="st0" d="M612,792c-204,0-408,0-612,0"/>
<linearGradient id="SVGID_1_" gradientUnits="userSpaceOnUse" x1="106.323" y1="1825.4275" x2="106.323" y2="1825.4275" gradientTransform="matrix(-0.5 0.866 -0.866 -0.5 816.609 -155.024)">
	<stop  offset="0" style="stop-color:#5FC199"/>
	<stop  offset="2.019008e-02" style="stop-color:#5DBD9C"/>
	<stop  offset="0.2292" style="stop-color:#48A5B8"/>
	<stop  offset="0.3815" style="stop-color:#3996C5"/>
	<stop  offset="0.46" style="stop-color:#3290CA"/>
	<stop  offset="0.527" style="stop-color:#338CC5"/>
	<stop  offset="0.6111" style="stop-color:#3682BA"/>
	<stop  offset="0.7043" style="stop-color:#3772AA"/>
	<stop  offset="0.8041" style="stop-color:#385E97"/>
	<stop  offset="0.908" style="stop-color:#384481"/>
	<stop  offset="0.9993" style="stop-color:#36286E"/>
</linearGradient>
<path class="st1" d="M-817.4-975.7"/>
<linearGradient id="SVGID_00000105397214171486448240000014951003760215913103_" gradientUnits="userSpaceOnUse" x1="561.3372" y1="896.2563" x2="648.7463" y2="1106.9629" gradientTransform="matrix(-1 0 0 -1 1091.0645 1657.955)">
	<stop  offset="0" style="stop-color:#5FC199"/>
	<stop  offset="2.019008e-02" style="stop-color:#5DBD9C"/>
	<stop  offset="0.2292" style="stop-color:#48A5B8"/>
	<stop  offset="0.3815" style="stop-color:#3996C5"/>
	<stop  offset="0.46" style="stop-color:#3290CA"/>
	<stop  offset="0.527" style="stop-color:#338CC5"/>
	<stop  offset="0.6111" style="stop-color:#3682BA"/>
	<stop  offset="0.7043" style="stop-color:#3772AA"/>
	<stop  offset="0.8041" style="stop-color:#385E97"/>
	<stop  offset="0.908" style="stop-color:#384481"/>
	<stop  offset="0.9993" style="stop-color:#36286E"/>
</linearGradient>
<path style="fill:url(#SVGID_00000105397214171486448240000014951003760215913103_);" d="M612.4,794L612.4,794L612.4,794l-222,0
	c-46.2-49.8-56.9-125.7-21.1-187.7c43.9-76,141.1-102.1,217.1-58.2c9.5,5.5,18.2,11.8,26,18.7L612.4,794z"/>
<linearGradient id="SVGID_00000124856058499507605910000011984250563053883564_" gradientUnits="userSpaceOnUse" x1="418.4488" y1="288.5009" x2="-102.0894" y2="688.6888">
	<stop  offset="0" style="stop-color:#5FC199"/>
	<stop  offset="2.019008e-02" style="stop-color:#5DBD9C"/>
	<stop  offset="0.2292" style="stop-color:#48A5B8"/>
	<stop  offset="0.3815" style="stop-color:#3996C5"/>
	<stop  offset="0.46" style="stop-color:#3290CA"/>
	<stop  offset="0.527" style="stop-color:#338CC5"/>
	<stop  offset="0.6111" style="stop-color:#3682BA"/>
	<stop  offset="0.7043" style="stop-color:#3772AA"/>
	<stop  offset="0.8041" style="stop-color:#385E97"/>
	<stop  offset="0.908" style="stop-color:#384481"/>
	<stop  offset="0.9993" style="stop-color:#36286E"/>
</linearGradient>
<path style="fill:url(#SVGID_00000124856058499507605910000011984250563053883564_);" d="M518.6,792H0V5.3h612v693.3
	C612,750.2,570.2,792,518.6,792z"/>
<linearGradient id="SVGID_00000139254205698864104650000011368935799519268539_" gradientUnits="userSpaceOnUse" x1="338.8399" y1="640.8633" x2="277.2935" y2="-7.9694">
	<stop  offset="0" style="stop-color:#5FC199"/>
	<stop  offset="2.019008e-02" style="stop-color:#5DBD9C"/>
	<stop  offset="0.2292" style="stop-color:#48A5B8"/>
	<stop  offset="0.3815" style="stop-color:#3996C5"/>
	<stop  offset="0.46" style="stop-color:#3290CA"/>
	<stop  offset="0.527" style="stop-color:#338CC5"/>
	<stop  offset="0.6111" style="stop-color:#3682BA"/>
	<stop  offset="0.7043" style="stop-color:#3772AA"/>
	<stop  offset="0.8041" style="stop-color:#385E97"/>
	<stop  offset="0.908" style="stop-color:#384481"/>
	<stop  offset="0.9993" style="stop-color:#36286E"/>
</linearGradient>
<path style="fill:url(#SVGID_00000139254205698864104650000011368935799519268539_);" d="M612,285V0H0
	c0.6,203.1,1.3,406.3,1.9,609.4c19.6,15.8,142.1,111.7,280.9,74.2c100.9-27.3,161.1-111.8,168.7-122.8c46-66.4,44-122.8,114.3-219.5
	C584.1,316.1,601,297,612,285z"/>
<linearGradient id="SVGID_00000183932976913187142800000004625964847967830163_" gradientUnits="userSpaceOnUse" x1="-3.4672" y1="219.1406" x2="476.2788" y2="194.8061">
	<stop  offset="0" style="stop-color:#5FC199"/>
	<stop  offset="2.019008e-02" style="stop-color:#5DBD9C"/>
	<stop  offset="0.2292" style="stop-color:#48A5B8"/>
	<stop  offset="0.3815" style="stop-color:#3996C5"/>
	<stop  offset="0.46" style="stop-color:#3290CA"/>
	<stop  offset="0.527" style="stop-color:#338CC5"/>
	<stop  offset="0.6111" style="stop-color:#3682BA"/>
	<stop  offset="0.7043" style="stop-color:#3772AA"/>
	<stop  offset="0.8041" style="stop-color:#385E97"/>
	<stop  offset="0.908" style="stop-color:#384481"/>
	<stop  offset="0.9993" style="stop-color:#36286E"/>
</linearGradient>
<path style="fill:url(#SVGID_00000183932976913187142800000004625964847967830163_);" d="M331.5,0H0c0.3,102.1,0.6,204.3,1,306.4
	c14.8,2.8,38.1,7.9,65.7,17.5c88.9,30.8,103.4,66.6,160.9,86.5c70,24.3,170.2,13.4,220.2-49.6c5.5-7,38-49.4,31.6-100.5
	c-7.2-57.9-62.3-112.5-96.4-146.2c-14.3-14.1-36.7-34.5-46.7-69.3C331,26.9,330.8,10.9,331.5,0z"/>
</svg>
