<?xml version="1.0" encoding="utf-8"?>
<!-- Generator: Adobe Illustrator 27.6.0, SVG Export Plug-In . SVG Version: 6.00 Build 0)  -->
<svg version="1.1" id="Layer_1" xmlns="http://www.w3.org/2000/svg" xmlns:xlink="http://www.w3.org/1999/xlink" x="0px" y="0px"
	 viewBox="0 0 299.5 54.4" style="enable-background:new 0 0 299.5 54.4;" xml:space="preserve">
<style type="text/css">
	.st0{fill:url(#SVGID_1_);}
	.st1{fill:none;}
	.st2{fill:url(#SVGID_00000155869389959497119440000017394849174740661920_);}
</style>
<path d="M0,2.2h6.7c5.6,0,10.1,4.5,10.1,10.1v40.3H0V2.2z"/>
<path d="M40.6,20.7h20.5v3.2C61.1,29.5,56.6,34,51,34H30.5v-3.2C30.5,25.2,35,20.7,40.6,20.7z"/>
<path d="M73.3,48.8c0.1-5.3,4.4-9.6,9.7-9.6h16.7c2.2,0,3.3-1,3.3-2.7c0-1.6-1.1-2.6-3.4-2.6H87.7c-8.4,0-15.3-5.8-15.3-15.9
	c0-11.7,8-15.9,16-15.9h19.5c5.7,0,10.2,4.6,10.2,10.2v3.1H92.6c-1.9,0-3.3,0.7-3.3,2.5c0,1.9,1.4,2.7,3.3,2.7h11.2
	c9.6,0,16,5.7,16,15.8c0,9.6-7.2,16-16.5,16H73.2L73.3,48.8z"/>
<path d="M148.5,33.9v18.7h-16.8V2.3h34.9c10.2,0,16.4,5.9,16.4,16c0,8.8-8.1,15.8-17.1,15.8h-15.8v-3.2c0-5.6,4.5-10.1,10.1-10.1
	h3.3c1.6,0,2.7-1.1,2.7-2.7c0-1.7-1.1-2.5-2.7-2.5h-14.9v5.2v13.1H148.5z"/>
<path d="M267.7,15.5h-15V2.2h46.8v13.3h-15v26.9c0,5.6-4.6,10.2-10.2,10.2h-6.7V15.5H267.7z"/>
<linearGradient id="SVGID_1_" gradientUnits="userSpaceOnUse" x1="232.7826" y1="740.682" x2="199.4477" y2="780.4602" gradientTransform="matrix(1 0 0 1 0 -730)">
	<stop  offset="0" style="stop-color:#5FC199"/>
	<stop  offset="2.019008e-02" style="stop-color:#5DBD9C"/>
	<stop  offset="0.2292" style="stop-color:#48A5B8"/>
	<stop  offset="0.3815" style="stop-color:#3996C5"/>
	<stop  offset="0.46" style="stop-color:#3290CA"/>
	<stop  offset="0.527" style="stop-color:#338CC5"/>
	<stop  offset="0.6111" style="stop-color:#3682BA"/>
	<stop  offset="0.7043" style="stop-color:#3772AA"/>
	<stop  offset="0.8041" style="stop-color:#385E97"/>
	<stop  offset="0.908" style="stop-color:#384481"/>
	<stop  offset="0.9993" style="stop-color:#36286E"/>
</linearGradient>
<path class="st0" d="M218.8,1.4c-14.3,0-26,11.6-26,25.9c0,14.4,11.7,26,26,26s26-11.6,26-26C244.7,13,233.1,1.4,218.8,1.4z
	 M218.8,36.8c-7.5,0-13.7-4.2-13.7-9.4s6.1-9.4,13.7-9.4c7.5,0,13.6,4.2,13.6,9.4C232.4,32.5,226.3,36.8,218.8,36.8z"/>
<path class="st1" d="M575-5.6c0,5.2-6.1,9.4-13.6,9.4s-13.7-4.2-13.7-9.4s6.1-9.4,13.7-9.4C568.9-15.1,575-10.8,575-5.6z"/>
<linearGradient id="SVGID_00000128474203343260945940000003798562034742513335_" gradientUnits="userSpaceOnUse" x1="214.6614" y1="757.424" x2="222.8311" y2="757.424" gradientTransform="matrix(1 0 0 1 0 -730)">
	<stop  offset="0" style="stop-color:#5FC199"/>
	<stop  offset="1" style="stop-color:#2F8ECD"/>
</linearGradient>
<path style="fill:url(#SVGID_00000128474203343260945940000003798562034742513335_);" d="M222.8,27.4c0,2.1-1.6,3.8-4.1,3.8
	s-4-1.7-4-3.8c0-2.2,1.6-3.8,4.1-3.8C221.3,23.5,222.8,25.2,222.8,27.4z"/>
</svg>
